<svg version="1.1" id="Layer_1" xmlns="http://www.w3.org/2000/svg" xmlns:xlink="http://www.w3.org/1999/xlink" x="0px" y="0px"
	 width="100%" viewBox="0 0 512 544" enable-background="new 0 0 512 544" xml:space="preserve">
<path fill="#000000" opacity="1.000000" stroke="none" 
	d="
M143.428848,232.478546 
	C119.837852,190.964554 116.588631,148.044495 136.742401,105.307175 
	C159.440231,57.175003 198.272110,29.916391 251.986420,25.677031 
	C315.693878,20.648970 373.618591,62.549244 391.456238,121.064117 
	C405.992493,168.749054 396.804077,212.187485 365.160553,250.648407 
	C347.749634,271.810425 325.459198,286.122314 299.225861,293.683899 
	C277.354492,299.988159 255.053802,300.983093 232.588272,296.092896 
	C193.859741,287.662628 164.563736,266.135040 143.428848,232.478546 
M146.247223,211.301361 
	C153.658081,228.973389 164.738586,243.931229 179.196014,256.506317 
	C199.056473,273.780914 222.120193,284.047913 248.170273,286.443970 
	C286.000092,289.923431 319.051392,278.479187 347.063049,252.509018 
	C382.431641,219.718109 395.951935,164.101730 378.216858,119.274887 
	C360.552551,74.627029 328.110474,47.226284 280.344482,39.028332 
	C250.564423,33.917259 222.766449,39.835007 196.810028,54.993042 
	C195.229630,55.915977 193.256027,56.579384 192.460999,58.639534 
	C194.890808,60.033920 197.273880,59.559444 199.558594,59.564903 
	C218.052933,59.609119 236.556152,59.955215 255.039688,59.507698 
	C278.906158,58.929852 300.551910,65.428894 319.816406,79.209938 
	C348.473450,99.710052 364.312592,128.018036 365.020111,163.085388 
	C365.733948,198.467163 349.788025,226.620590 321.340057,247.454453 
	C285.008759,274.061707 234.257645,272.975708 198.916702,245.096817 
	C175.533493,226.650879 161.969803,202.659576 158.686905,172.999649 
	C158.296265,169.470276 156.808456,168.011185 153.253860,168.165726 
	C149.095901,168.346512 144.918411,168.319199 140.758881,168.149704 
	C137.158508,168.002991 136.198807,169.490250 136.526031,172.973724 
	C137.750809,186.012482 140.832306,198.552872 146.247223,211.301361 
M310.669586,240.137634 
	C323.780457,232.141174 333.713776,221.081970 341.375824,207.924423 
	C349.071991,194.708328 353.271393,180.231369 353.410583,165.095062 
	C353.535187,151.542633 350.077087,138.353622 343.958221,126.116768 
	C327.000580,92.203888 299.301605,73.546432 261.680176,71.607735 
	C234.425552,70.203262 207.040710,71.317734 179.713974,71.344109 
	C178.241791,71.345528 176.331375,71.140640 175.368698,71.934128 
	C168.846191,77.310364 163.183105,83.473564 158.842102,90.925125 
	C161.332993,92.436821 163.544083,91.870598 165.632004,91.878357 
	C194.957977,91.987404 224.284760,91.956192 253.609970,92.156548 
	C260.745422,92.205299 267.930176,92.231514 274.981506,93.758621 
	C312.426758,101.868149 336.393005,135.358871 331.381256,172.589783 
	C324.783478,221.602631 271.068085,248.322784 227.760376,223.952881 
	C208.093674,212.886139 196.768906,195.737411 192.893448,173.587662 
	C192.501709,171.348709 192.815353,168.455963 189.525452,168.359558 
	C183.425369,168.180801 177.316315,168.308334 171.280777,168.308334 
	C169.318069,192.795547 188.461670,225.622101 213.604294,240.626495 
	C245.668793,259.761658 277.929199,259.553955 310.669586,240.137634 
M289.657837,147.877487 
	C301.895660,162.948807 305.976105,180.652969 305.990906,199.781189 
	C316.655975,187.484543 321.026642,173.617218 319.845947,157.708267 
	C317.802277,130.171295 292.833466,104.891235 265.373138,104.441490 
	C228.406738,103.836044 191.423965,104.227783 154.448212,104.206993 
	C152.804352,104.206070 150.855103,103.923073 149.922668,105.640587 
	C146.950500,111.115067 144.185501,116.695114 142.698318,122.736382 
	C145.240158,123.897095 147.263168,123.564476 149.232742,123.566048 
	C179.041611,123.589790 208.851654,123.748825 238.658981,123.535484 
	C259.429993,123.386826 275.998749,131.654678 289.657837,147.877487 
M261.394958,172.129837 
	C273.353882,185.784470 276.523529,201.617142 272.215790,219.111618 
	C284.947662,218.929016 289.851898,214.856155 291.859833,203.761871 
	C292.848480,198.299454 292.934052,192.821426 292.664368,187.326920 
	C291.248688,158.483566 267.187073,135.347015 238.401489,135.258057 
	C209.902817,135.169998 181.403702,135.228043 152.904770,135.225357 
	C138.481171,135.223999 138.481171,135.227371 136.904861,149.579468 
	C136.214706,155.863205 136.214706,155.887131 142.745834,155.886337 
	C169.578140,155.883041 196.410477,155.845947 223.242767,155.857758 
	C237.975601,155.864258 250.475922,161.286545 261.394958,172.129837 
M229.514435,211.007996 
	C236.900864,215.714874 244.882309,218.755661 253.540085,220.300461 
	C257.219727,220.957001 258.969177,220.103180 260.245453,216.551331 
	C268.109711,194.665619 251.241302,169.280380 227.922134,168.286575 
	C221.442551,168.010437 214.941895,168.203140 208.451187,168.235718 
	C207.177765,168.242111 205.729813,167.964401 204.873550,169.357803 
	C205.786987,184.945175 213.839401,198.757141 229.514435,211.007996 
z"/>
<path fill="#000000" opacity="1.000000" stroke="none" 
	d="
M98.543518,426.514954 
	C79.545303,410.366364 78.712524,379.149078 96.752495,363.882477 
	C108.816483,353.673126 122.542099,351.691833 136.877823,357.917236 
	C151.252609,364.159637 158.109451,376.402435 159.136459,391.451904 
	C160.557037,412.268341 148.644547,429.076813 129.895126,433.489349 
	C118.652817,436.135162 108.104668,433.943970 98.543518,426.514954 
M99.356140,396.220795 
	C99.502373,400.104218 100.519180,403.818848 102.129654,407.286652 
	C105.434708,414.403137 110.851883,418.971191 118.873535,419.808990 
	C127.386719,420.698090 134.202515,417.704285 139.065720,410.537415 
	C143.193436,404.454376 144.354950,397.665649 143.580521,390.522186 
	C141.816849,374.254059 126.654831,364.526855 112.637955,370.997528 
	C102.459030,375.696411 99.519966,384.904480 99.356140,396.220795 
z"/>
<path fill="#000000" opacity="1.000000" stroke="none" 
	d="
M496.515869,378.743286 
	C501.092438,391.910400 500.310852,404.337097 493.569214,416.135132 
	C485.493683,430.267578 469.195953,437.199005 453.443512,433.492706 
	C437.631561,429.772369 425.863770,415.845276 424.561371,399.861877 
	C423.366882,385.202820 427.006775,372.429443 438.494843,362.719818 
	C455.200714,348.600159 486.036957,352.311371 496.515869,378.743286 
M439.453613,394.670074 
	C439.767548,397.142151 439.907166,399.651550 440.426392,402.079712 
	C442.400879,411.313965 449.775726,418.642548 457.992401,419.705902 
	C468.224457,421.030121 476.442200,416.864685 481.056610,407.718384 
	C485.022034,399.858368 485.096558,391.619171 482.038940,383.529816 
	C478.448425,374.030487 470.676270,369.000580 460.873596,369.170837 
	C451.594086,369.332031 444.861328,374.467163 441.293335,384.161957 
	C440.137970,387.301147 439.514557,390.559479 439.453613,394.670074 
z"/>
<path fill="#000000" opacity="1.000000" stroke="none" 
	d="
M250.803162,401.658386 
	C250.526489,406.463959 250.548355,410.955933 250.327972,415.436005 
	C250.160660,418.836853 251.858902,419.724182 254.893951,419.687805 
	C262.549103,419.596008 270.206451,419.625549 277.862366,419.680054 
	C283.335785,419.719025 287.084930,422.742065 286.884918,426.813660 
	C286.697571,430.626831 283.064972,433.260925 277.725037,433.282349 
	C266.740051,433.326416 255.754471,433.344727 244.769730,433.277130 
	C238.355423,433.237671 235.739365,430.615234 235.720169,424.101349 
	C235.661789,404.294952 235.655777,384.488068 235.721588,364.681732 
	C235.742935,358.259247 238.383270,355.744934 244.957611,355.707581 
	C255.942444,355.645142 266.928131,355.650146 277.912964,355.710846 
	C283.395691,355.741119 287.031494,358.723999 286.945862,362.893829 
	C286.863159,366.920990 283.633087,369.271271 277.910461,369.312225 
	C270.254517,369.367004 262.595398,369.450134 254.942780,369.284058 
	C251.495850,369.209259 250.214157,370.434143 250.305267,373.917755 
	C250.709824,389.382690 248.150620,386.530884 262.627563,386.849762 
	C266.287567,386.930359 269.952850,386.790161 273.611877,386.890167 
	C278.931427,387.035553 281.938934,389.773895 281.811340,394.187042 
	C281.696411,398.163361 279.025055,400.300323 273.759552,400.377563 
	C268.101898,400.460541 262.441467,400.341858 256.783081,400.397156 
	C254.826187,400.416290 252.760269,400.024445 250.803162,401.658386 
z"/>
<path fill="#000000" opacity="1.000000" stroke="none" 
	d="
M378.336182,425.617249 
	C378.354889,408.228333 378.402832,391.249054 378.457550,374.269806 
	C378.468567,370.849579 377.154480,369.036011 373.362610,369.280182 
	C369.548889,369.525726 365.705750,369.339478 361.875916,369.302856 
	C357.741547,369.263336 355.279694,367.137787 354.801208,363.071564 
	C354.359436,359.317139 357.176453,355.918335 361.442322,355.867615 
	C377.924652,355.671600 394.412659,355.655365 410.893951,355.893066 
	C414.793213,355.949280 417.391998,358.547546 417.242615,362.797882 
	C417.095459,366.982666 414.642578,369.156586 410.518799,369.273102 
	C406.358643,369.390686 402.188080,369.453094 398.031708,369.291504 
	C394.589203,369.157684 393.481659,370.366730 393.532349,373.954102 
	C393.767395,390.589020 393.681488,407.228455 393.718567,423.866272 
	C393.731323,429.589722 391.449036,432.707703 386.851318,433.201447 
	C382.513763,433.667267 379.780304,431.355591 378.336182,425.617249 
z"/>
<path fill="#000000" opacity="1.000000" stroke="none" 
	d="
M214.464783,383.443634 
	C204.550842,393.738068 201.459564,405.758087 203.182236,419.345398 
	C203.492004,421.788605 203.365906,424.377441 202.922333,426.804260 
	C202.280579,430.315338 200.431610,433.120880 196.392303,433.191528 
	C192.233185,433.264252 189.867737,430.692841 189.186676,426.907501 
	C188.662659,423.995026 188.492905,420.889771 188.879318,417.964508 
	C190.709778,404.108368 187.175095,392.263306 177.166336,382.177979 
	C173.105759,378.086365 170.048782,372.975952 166.682358,368.224823 
	C163.452866,363.666931 163.919968,359.463013 167.712372,356.855743 
	C171.242188,354.428986 175.201462,355.339233 178.445892,359.680115 
	C184.304169,367.518158 190.002228,375.475922 196.078217,383.810333 
	C200.107208,380.134552 202.413925,375.721741 205.261536,371.766113 
	C208.079605,367.851471 210.615311,363.734406 213.401276,359.795532 
	C216.505905,355.406128 220.486465,354.400909 224.030365,356.931763 
	C227.605011,359.484589 228.094208,363.429901 225.131073,367.922089 
	C221.741318,373.061035 218.166138,378.077698 214.464783,383.443634 
z"/>
<path fill="#000000" opacity="1.000000" stroke="none" 
	d="
M297.994110,409.998413 
	C297.995941,396.180328 297.989594,382.861816 298.007751,369.543304 
	C298.010498,367.547821 297.994476,365.537231 298.218994,363.559967 
	C298.796265,358.476044 301.899353,355.521332 306.199066,355.788116 
	C310.147339,356.033051 313.100220,359.282684 313.134735,364.108002 
	C313.251465,380.422394 313.174225,396.738068 313.210785,413.053192 
	C313.225525,419.625732 313.272247,419.626648 319.983124,419.632599 
	C326.808868,419.638672 333.635162,419.591705 340.460175,419.664703 
	C345.170074,419.715027 348.061707,422.311523 348.134888,426.341370 
	C348.204315,430.164093 345.107300,433.188080 340.532379,433.235870 
	C329.046448,433.355896 317.557709,433.358582 306.071686,433.246185 
	C301.011932,433.196655 298.337585,430.421875 298.075500,424.979034 
	C297.843597,420.161865 298.005707,415.325745 297.994110,409.998413 
z"/>
<path fill="#000000" opacity="1.000000" stroke="none" 
	d="
M71.207748,432.949219 
	C58.480801,433.150757 46.170929,433.238861 33.860912,433.273987 
	C29.771151,433.285675 27.351324,431.068909 26.488567,427.182434 
	C26.131443,425.573669 25.971359,423.889008 25.968939,422.238525 
	C25.941603,403.601196 25.959791,384.963806 25.977264,366.326416 
	C25.978199,365.330322 26.009495,364.324036 26.149643,363.339996 
	C26.850382,358.419891 30.125122,355.422913 34.384491,355.752136 
	C38.251865,356.051086 41.191402,359.444214 41.216919,364.190704 
	C41.306370,380.830750 41.390839,397.473175 41.181915,414.110992 
	C41.126175,418.549683 42.615654,419.916290 46.952175,419.721527 
	C53.927094,419.408356 60.929184,419.757111 67.914444,419.595245 
	C71.917839,419.502472 74.862076,420.815796 75.907768,424.798828 
	C76.908653,428.611176 74.989655,431.175110 71.207748,432.949219 
z"/>
<path fill="#000000" opacity="1.000000" stroke="none" 
	d="
M224.544983,514.477417 
	C222.038025,519.958801 219.731186,525.117493 217.344025,530.238708 
	C216.593002,531.849854 215.865555,534.098267 213.487198,533.117676 
	C210.861694,532.035217 212.294556,529.923767 213.181488,528.518005 
	C215.360229,525.064697 214.567444,521.981079 212.805649,518.693970 
	C211.160477,515.624390 209.658508,512.442322 208.472382,509.172333 
	C207.289597,505.911591 205.203049,505.792053 202.248047,506.176849 
	C198.552353,506.658112 199.417221,509.227448 199.335571,511.395691 
	C199.160828,516.036011 198.359238,521.038147 204.938202,522.271240 
	C205.338409,522.346191 205.578156,523.277222 205.896759,523.817078 
	C200.711060,526.667847 195.919250,524.740906 194.822815,519.417725 
	C194.459457,517.653564 194.566849,515.778259 194.577148,513.954407 
	C194.598587,510.162781 194.838745,506.310028 189.892517,504.719788 
	C191.813431,501.939301 195.443405,500.769806 194.987656,496.977875 
	C194.896637,496.220551 195.929718,495.680511 196.843445,495.659790 
	C197.978851,495.634003 198.982269,496.204559 199.008255,497.282349 
	C199.149368,503.137817 203.338791,502.798065 207.079178,502.271118 
	C210.370087,501.807465 211.111435,503.910828 212.077362,505.980804 
	C213.884750,509.854034 215.571625,513.783508 217.759995,518.704529 
	C220.103638,513.505554 221.924713,509.296997 223.902985,505.163635 
	C224.656158,503.589996 225.476486,501.371674 227.872101,502.598633 
	C229.957703,503.666809 228.842010,505.446869 228.148361,506.939728 
	C227.027924,509.351196 225.861206,511.741180 224.544983,514.477417 
z"/>
<path fill="#000000" opacity="1.000000" stroke="none" 
	d="
M412.074158,503.769653 
	C412.232666,511.000580 412.365112,517.824463 412.260284,524.644653 
	C412.198944,528.633911 410.380127,531.825684 406.444092,533.101807 
	C401.822418,534.600220 397.240814,534.338867 393.112854,531.407532 
	C392.264648,530.805237 391.717804,529.882690 392.188385,528.809265 
	C392.816467,527.376587 394.041748,527.580383 395.161102,528.049561 
	C397.158386,528.886597 399.096497,529.749756 401.360321,529.720947 
	C405.357300,529.669922 407.626648,527.996643 407.627319,523.365723 
	C405.590546,523.759766 403.742920,524.250000 401.864197,524.454041 
	C397.484375,524.929504 394.009644,523.399658 391.847168,519.425171 
	C389.438080,514.997498 389.826141,508.840759 392.961792,505.332397 
	C396.006683,501.925690 400.188538,500.278168 404.176147,502.512939 
	C406.998016,504.094360 409.783752,500.169983 412.074158,503.769653 
M395.624237,510.333832 
	C395.533478,511.822662 395.211670,513.341125 395.398193,514.794373 
	C395.837555,518.218018 397.980469,520.264221 401.382294,520.400330 
	C404.637512,520.530457 406.751068,518.494629 407.441467,515.456360 
	C408.218140,512.038452 407.946533,508.509460 404.351990,506.774780 
	C400.916748,505.117065 397.836761,505.995453 395.624237,510.333832 
z"/>
<path fill="#000000" opacity="1.000000" stroke="none" 
	d="
M257.985565,496.331726 
	C256.351776,496.331238 255.169785,496.453827 254.021820,496.308136 
	C249.606369,495.747864 249.311020,498.361298 249.223785,501.805511 
	C249.130127,505.503021 250.411591,506.751984 254.121628,506.770569 
	C257.699707,506.788422 261.636993,505.500122 265.462891,508.260590 
	C262.272186,512.059265 258.406708,510.790710 255.026215,510.878448 
	C249.171722,511.030365 248.986969,511.209778 249.253586,517.098267 
	C249.381226,519.917358 250.537704,520.947632 253.230499,520.877686 
	C256.226410,520.799866 259.229095,520.870972 262.225555,520.973022 
	C263.740356,521.024597 265.595825,521.253113 265.646759,523.121277 
	C265.712402,525.531128 263.548645,525.259033 261.962311,525.281799 
	C257.631165,525.343994 253.298157,525.265320 248.966507,525.307068 
	C246.083344,525.334900 244.673477,524.065063 244.686264,521.103577 
	C244.721527,512.939453 244.706161,504.774750 244.649460,496.610718 
	C244.627609,493.463776 246.217499,491.999359 249.218506,491.958344 
	C253.382904,491.901398 257.549438,491.884766 261.713226,491.956665 
	C263.352020,491.984985 265.574524,492.022919 265.616943,494.123840 
	C265.671844,496.842682 263.139709,496.136414 261.450500,496.306091 
	C260.460449,496.405548 259.452759,496.329010 257.985565,496.331726 
z"/>
<path fill="#000000" opacity="1.000000" stroke="none" 
	d="
M315.669678,501.073608 
	C315.668396,499.587952 315.572968,498.578766 315.693207,497.595917 
	C315.935303,495.616913 314.857361,492.485260 317.916534,492.385681 
	C321.064484,492.283264 320.167480,495.408112 320.307373,497.398651 
	C320.432678,499.181427 320.333740,500.979980 320.333740,502.396973 
	C321.715332,503.275818 322.473022,502.831268 323.248474,502.593262 
	C331.151093,500.167786 335.497192,503.128632 335.964142,511.382996 
	C336.132843,514.365173 336.117584,517.371094 335.956879,520.353821 
	C335.856537,522.216370 336.205719,525.013916 333.390686,524.870178 
	C330.719330,524.733826 331.139038,522.020447 331.060547,520.104126 
	C330.944885,517.282349 331.003540,514.453979 330.951904,511.629059 
	C330.903473,508.978638 330.468628,506.528015 327.155365,506.180756 
	C323.850922,505.834442 321.758484,507.342957 320.848206,510.527679 
	C319.867798,513.957581 320.557770,517.474182 320.286407,520.939087 
	C320.151428,522.662720 320.620239,525.079163 317.834869,524.896973 
	C315.598175,524.750732 315.741760,522.641174 315.728333,521.008545 
	C315.674957,514.526611 315.685913,508.044189 315.669678,501.073608 
z"/>
<path fill="#000000" opacity="1.000000" stroke="none" 
	d="
M347.425781,511.903503 
	C349.163574,511.776062 350.491394,511.734589 351.818024,511.669708 
	C353.294769,511.597504 355.088715,511.813965 355.079071,509.611786 
	C355.070892,507.744354 354.007080,506.510925 352.078644,506.208923 
	C349.688324,505.834656 347.466583,506.403290 345.329590,507.452209 
	C344.213074,508.000214 343.002716,508.268799 342.270203,506.982666 
	C341.427185,505.502441 342.273651,504.418488 343.550201,503.717896 
	C347.358429,501.627838 351.397980,500.765869 355.504974,502.549683 
	C359.418945,504.249725 360.167480,507.864838 360.253143,511.692566 
	C360.271698,512.522949 360.260803,513.354065 360.261871,514.184814 
	C360.274353,524.045776 360.274261,524.045837 350.925415,525.392639 
	C346.241547,526.067322 341.838654,523.649597 341.128571,519.757935 
	C340.290649,515.165833 343.111755,513.106506 347.425781,511.903503 
M352.182465,515.291687 
	C351.522797,515.299561 350.860840,515.274780 350.203918,515.321289 
	C348.294434,515.456482 346.464661,515.833496 346.317963,518.217041 
	C346.227448,519.688049 347.153046,520.764893 348.480499,521.226746 
	C350.813324,522.038330 352.778595,521.106323 354.081421,519.230103 
	C355.117615,517.737793 355.261566,516.070435 352.182465,515.291687 
z"/>
<path fill="#000000" opacity="1.000000" stroke="none" 
	d="
M171.469818,524.304443 
	C167.764435,525.866821 164.364578,526.190918 161.177246,524.007446 
	C158.998276,522.514709 157.706818,520.402344 158.069855,517.617981 
	C158.434067,514.824646 160.102036,513.253662 162.780106,512.435120 
	C164.735428,511.837524 166.690689,511.736084 168.687271,511.644043 
	C170.106537,511.578613 172.065735,511.992035 172.198822,509.852356 
	C172.327927,507.777191 171.031357,506.431183 168.908890,506.162567 
	C166.706329,505.883820 164.618210,506.366089 162.604446,507.295380 
	C161.417068,507.843323 160.013916,508.646240 159.135529,506.979736 
	C158.364594,505.517151 159.239914,504.380249 160.520355,503.704712 
	C164.345505,501.686462 168.330215,500.773346 172.500015,502.591827 
	C176.476929,504.326202 177.315598,507.765656 177.258118,511.671021 
	C177.214005,514.667664 177.144470,517.670288 177.278412,520.661621 
	C177.478500,525.129944 175.411102,525.814270 171.469818,524.304443 
M169.839523,515.296570 
	C169.012970,515.301453 168.185364,515.281311 167.360077,515.316223 
	C165.440582,515.397339 163.628647,515.730896 163.375885,518.111511 
	C163.212082,519.654358 164.186096,520.587036 165.506882,521.103577 
	C167.910446,522.043640 169.772919,520.897766 171.102798,519.113403 
	C171.971756,517.947571 173.425980,516.179626 169.839523,515.296570 
z"/>
<path fill="#000000" opacity="1.000000" stroke="none" 
	d="
M130.391724,509.957886 
	C131.686493,517.976746 129.204025,523.321838 123.628212,525.087891 
	C117.300774,527.091980 111.774696,524.444519 109.588799,518.361755 
	C107.189949,511.686462 109.869591,504.717224 115.702194,502.461975 
	C121.905373,500.063446 127.499031,502.781769 130.391724,509.957886 
M118.174995,521.081116 
	C121.703682,521.945740 124.261253,520.390503 125.265465,517.237732 
	C126.331924,513.889526 126.490860,510.249268 123.601562,507.447144 
	C121.311852,505.226501 116.992996,505.683044 115.203560,508.173096 
	C112.475471,511.969269 113.539330,517.870728 118.174995,521.081116 
z"/>
<path fill="#000000" opacity="1.000000" stroke="none" 
	d="
M437.823792,512.857849 
	C435.794952,515.965454 432.908173,515.036743 430.353638,515.173401 
	C427.901520,515.304565 425.436859,515.201843 422.969330,515.201843 
	C423.171478,520.620239 425.881836,522.269653 430.951202,521.182068 
	C432.966888,520.749634 436.166992,517.468872 437.030426,521.324280 
	C437.677948,524.215454 433.727386,524.887939 431.150330,525.314697 
	C425.094849,526.317566 420.392395,524.055969 418.195709,519.293823 
	C415.921967,514.364624 416.967499,507.875397 420.726227,504.511536 
	C423.821808,501.741119 427.502289,500.944794 431.422638,502.292603 
	C436.188080,503.930939 437.710480,507.835052 437.823792,512.857849 
M429.549408,506.059357 
	C425.423767,505.224915 423.086731,506.693268 422.516968,511.293610 
	C426.365814,511.600159 429.702667,512.319397 432.901398,510.862976 
	C433.052643,508.461670 431.991211,507.144501 429.549408,506.059357 
z"/>
<path fill="#000000" opacity="1.000000" stroke="none" 
	d="
M370.541870,511.804840 
	C370.462677,515.542542 370.468048,518.869202 370.406219,522.194702 
	C370.380371,523.585632 370.098663,524.975037 368.328156,525.045105 
	C366.654083,525.111511 365.907684,523.901062 365.885773,522.476562 
	C365.796265,516.658630 365.794250,510.838379 365.847382,505.019806 
	C365.860352,503.604065 366.936737,501.710602 368.047241,502.317047 
	C371.226562,504.053253 373.789307,501.893097 376.617462,501.690582 
	C381.638611,501.331024 385.513458,504.178741 386.012787,509.240936 
	C386.419128,513.360229 386.202454,517.546204 386.163391,521.701660 
	C386.148926,523.237305 385.796967,524.886108 383.869629,525.009033 
	C381.597229,525.153992 381.197052,523.296204 381.092346,521.625916 
	C380.915680,518.807861 381.078491,515.968811 380.910217,513.149902 
	C380.751129,510.484314 381.759521,507.027161 377.767334,506.265015 
	C373.791107,505.505951 371.453644,507.535217 370.541870,511.804840 
z"/>
<path fill="#000000" opacity="1.000000" stroke="none" 
	d="
M134.038788,507.713013 
	C133.376160,505.588898 131.479080,503.397888 134.390869,502.320892 
	C136.679123,501.474579 137.430603,503.864136 138.188980,505.411804 
	C140.071152,509.252747 141.773590,513.181763 143.830322,517.694336 
	C147.192001,513.700684 148.038818,509.201569 150.216309,505.431580 
	C151.075348,503.944305 151.624420,501.439301 154.001556,502.510162 
	C156.329391,503.558838 155.095444,505.638458 154.347260,507.257324 
	C150.794876,514.943665 147.210327,522.615295 143.590836,530.270264 
	C142.831741,531.875671 142.057739,534.189819 139.735809,532.997925 
	C137.816299,532.012512 138.748810,529.931702 139.632889,528.601379 
	C141.762802,525.396423 141.192581,522.499390 139.493607,519.330750 
	C137.535782,515.679443 135.951599,511.827789 134.038788,507.713013 
z"/>
<path fill="#000000" opacity="1.000000" stroke="none" 
	d="
M287.800659,502.110413 
	C290.766510,503.885376 289.196472,505.441772 287.988800,507.090790 
	C283.216217,513.607239 283.228882,513.617615 288.274139,520.322693 
	C288.573822,520.721069 288.928528,521.080078 289.208191,521.491028 
	C289.900513,522.508423 290.407623,523.609253 289.281494,524.608948 
	C288.201691,525.567444 287.038330,525.182556 286.163361,524.293518 
	C284.077209,522.173889 282.084198,519.962585 279.906403,517.630737 
	C276.881348,518.983276 275.423584,521.732544 273.290680,523.703186 
	C272.136841,524.769287 270.933624,525.878418 269.476074,524.377258 
	C268.297821,523.163757 269.132385,521.915649 269.892517,520.785339 
	C269.984833,520.648071 270.105255,520.529968 270.208191,520.399475 
	C272.029816,518.089783 275.363403,516.426880 275.335663,513.360352 
	C275.310028,510.525208 271.885010,509.100098 270.395935,506.711304 
	C269.593262,505.423737 268.505676,504.040924 269.970581,502.715240 
	C271.525909,501.307739 272.649536,502.744995 273.761353,503.737762 
	C275.716248,505.483307 276.822205,508.102844 279.358063,509.294525 
	C282.842712,507.683868 283.799591,503.351410 287.800659,502.110413 
z"/>
<path fill="#000000" opacity="1.000000" stroke="none" 
	d="
M104.504715,525.228760 
	C99.567146,525.289001 95.075867,525.217773 90.589828,525.339417 
	C87.407433,525.425781 85.957329,523.897339 85.942017,520.878235 
	C85.900681,512.731628 85.882713,504.584595 85.931717,496.438171 
	C85.942856,494.585815 86.233910,492.284546 88.551018,492.324982 
	C90.873566,492.365570 91.023834,494.691986 91.041344,496.535461 
	C91.102921,503.019440 91.228493,509.508545 91.035866,515.987000 
	C90.925110,519.711426 92.404099,521.096008 96.022736,520.872925 
	C98.669197,520.709717 101.340530,520.875732 103.997108,520.984619 
	C105.204575,521.034119 106.398628,521.501221 106.762886,522.750122 
	C107.174637,524.161865 106.233353,524.868713 104.504715,525.228760 
z"/>
<path fill="#000000" opacity="1.000000" stroke="none" 
	d="
M293.724518,508.227966 
	C297.876465,501.744110 304.306580,499.837189 309.675201,503.206268 
	C310.928253,503.992615 312.531799,504.825806 311.810913,506.657257 
	C310.972961,508.786102 309.380737,507.723022 308.046875,507.131409 
	C305.124298,505.835144 302.037994,505.210938 299.735382,507.841034 
	C297.421051,510.484558 296.991638,513.803406 298.301544,517.231140 
	C300.068909,521.856079 303.493683,521.678101 307.356476,520.518250 
	C308.938904,520.043152 311.100464,518.264038 311.866852,521.105896 
	C312.458221,523.298523 310.177246,524.185669 308.490784,524.775757 
	C304.154602,526.292847 299.885162,526.228210 296.329620,522.909851 
	C292.002411,518.871338 291.938812,513.865845 293.724518,508.227966 
z"/>
<path fill="#000000" opacity="1.000000" stroke="none" 
	d="
M187.884583,509.831116 
	C187.730270,514.286377 187.592316,518.266968 187.411652,522.245667 
	C187.348557,523.635193 187.075806,525.018066 185.285080,525.037415 
	C183.646866,525.055115 182.857468,523.930603 182.849152,522.461792 
	C182.797485,513.327148 182.790283,504.191956 182.847824,495.057434 
	C182.856644,493.656372 183.568512,492.329285 185.169037,492.294952 
	C187.138947,492.252655 187.621536,493.941162 187.677826,495.411865 
	C187.855530,500.055664 187.830643,504.707184 187.884583,509.831116 
z"/>
</svg>