<?xml version="1.0" standalone="no"?>
<!DOCTYPE svg PUBLIC "-//W3C//DTD SVG 20010904//EN"
 "http://www.w3.org/TR/2001/REC-SVG-20010904/DTD/svg10.dtd">
<svg version="1.0" xmlns="http://www.w3.org/2000/svg"
 width="302.000000pt" height="299.000000pt" viewBox="0 0 302.000000 299.000000"
 preserveAspectRatio="xMidYMid meet">

<g transform="translate(0.000000,299.000000) scale(0.100000,-0.100000)"
fill="#000000" stroke="none">
<path d="M1310 2851 c-365 -45 -740 -273 -946 -576 -168 -247 -243 -489 -244
-785 0 -214 43 -399 140 -595 130 -263 340 -477 597 -608 208 -105 390 -148
628 -148 373 0 720 149 976 419 205 215 322 455 370 755 19 122 7 367 -25 494
-66 265 -180 468 -367 654 -191 190 -442 324 -708 378 -70 15 -338 22 -421 12z
m375 -115 c562 -87 1001 -567 1044 -1144 28 -361 -90 -692 -340 -956 -109
-115 -216 -195 -357 -266 -125 -63 -215 -90 -379 -115 -138 -20 -228 -19 -370
5 -159 27 -209 43 -338 104 -327 157 -570 441 -668 782 -32 109 -47 192 -47
256 l0 49 112 -3 112 -3 13 -88 c70 -488 468 -862 950 -893 552 -36 1032 368
1094 921 10 95 9 124 -5 214 -73 458 -400 805 -846 898 -57 12 -172 17 -490
22 l-415 6 65 41 c124 78 300 146 438 169 104 17 317 18 427 1z m-61 -341
c315 -55 596 -287 717 -593 125 -315 74 -626 -148 -904 -104 -131 -296 -258
-453 -300 -72 -19 -111 -22 -255 -23 -151 0 -179 3 -245 23 -148 46 -323 153
-416 254 -151 163 -253 395 -254 571 l0 28 113 -3 112 -3 8 -40 c23 -114 32
-145 57 -201 75 -167 220 -300 401 -368 69 -26 209 -46 269 -39 102 12 166 26
223 50 261 112 428 360 429 638 1 316 -196 579 -507 677 -68 22 -84 22 -652
26 -321 1 -583 6 -583 9 0 10 73 103 125 161 l47 52 463 0 c367 0 480 -3 549
-15z m-75 -315 c233 -30 426 -189 502 -415 28 -84 33 -248 10 -330 -21 -76
-69 -165 -114 -214 l-40 -44 6 61 c15 141 -35 332 -119 455 -85 124 -220 223
-360 264 -52 15 -126 17 -601 21 -447 3 -543 6 -543 17 0 7 9 34 20 59 11 25
29 66 40 91 l19 45 548 0 c323 0 583 -4 632 -10z m-151 -323 c211 -63 362
-240 403 -471 14 -81 7 -190 -17 -264 -15 -47 -22 -54 -68 -77 -28 -13 -71
-27 -95 -31 l-43 -7 8 34 c5 19 9 84 9 144 0 106 -1 112 -37 185 -65 132 -151
209 -287 255 l-73 25 -484 0 -484 0 0 48 c0 48 17 159 27 175 3 5 249 7 547 4
457 -3 549 -6 594 -20z m-211 -317 c122 -28 225 -109 276 -218 29 -61 32 -76
32 -162 0 -72 -4 -103 -18 -127 -19 -35 -18 -35 -132 -11 -137 29 -308 166
-374 299 -34 70 -61 157 -61 202 l0 27 118 0 c64 0 136 -5 159 -10z"/>
</g>
</svg>
